<svg xmlns="http://www.w3.org/2000/svg" width="50.2" height="66.5" viewBox="0 0 502 665">
  <defs>
    <style>
      .cls-1 {
        fill: #fff;
        fill-rule: evenodd;
      }
    </style>
  </defs>
  <path id="Фигура_1" data-name="Фигура 1" class="cls-1" d="M148,629V613l1-8-1-5V588l2-12,1-8-1-11-1-14V511l1-19,2-18,4-8,4-11,6-11,4-11,3-12,3-10,2-9,2-13,1-9,1-11,2-10,1-11,2-8,2-6,1-6,2-5,4-7v-6l3-5,3-6,3-7,5-7,4-8,6-6,5-5,3-3-6-2-2,4h-3l-6-1-4-2v-5l-3-1-11-4-7-5-7-4-11-7-8-6-6-6-3-4v-6l2-6,3-4-5-8-3-8-2-7-1-6v-7l2-8v-2l-3,4-2,8v7l-1,2-2,4-2-1-2-5-1-4V161l2-4,3-6-5,4-5,6-1,1-2-3,3-7,5-8,6-6,12-7,10-4,7-1,8-1h11l-19-3h-6l-5,1-4,3-10,6-4,4,1-6,3-3h-4l-9,8-5,7-3,8-4-3-1,5-2-2-1-6,1-9,4-7,5-5,8-6,7-4,9-2,7-1h3l-14-1-6,1-7,2-6,4h-2v-3l4-4,6-4,5-3,4-2h3l-9-1,2-3,4-2h7l4,1-5-6,3-1,4,1,4,2,4,2s1.9,0.735,3,1a19.315,19.315,0,0,0,4,0l2-1,3,1,2,1,1-3-4-3-8-2-23,1h-6l5-4-12-1-5,1-4,1-8,3-4,2h-2l3-5h-4l-3,1h-3l6-8,6-2,4-2h3l2-1-4-2h-5l1-2,4-2,3-1h5l9,1,12,1h6l4,2-13-7-6-1h-7l-3-2,1-3,7-1,10,1,5,1,6,1,6,3,7,4,6,5,5,4h3l1,2,3,3h6l5-4,3-2-1-3-3-1,2-3s5.276-.17,6,0,6,2,6,2l4,2,4,3,5,3,2,1-3-5-3-6-1-5V54l-3-5-2-6-1-5-1-8,1-7,3-3,7-1,6,2,5,2,5,2,3,1,2,1,4-1,4-2,5-2h20l5,2,4,1,1-2h5l4,1,4,5-1,2v3l2,4,3,1,3,4,2,3,1,4v4l2,5,4,1,3,3h3l5,1h4l2,2h5l3,4,3,6,1,5,1,6v6l3-5,1,1,1,5,1,4,1,2,2,3,1,3-2,5,6-2,10-1,12,1,7,2,5,4,5,4,2,4-1,5-4-1-4-4-3-2-4-3-3-1H368l-6,1-4,1,2,4,7,2,6,2,5,3,3,3v3l-1,3,3,4,3,4,2,6v7l-1,7-5-6v-5l-2-1-2,1,4,8,3,8,2,6-1,4-2,5-4,3h-6l-6-1-8-2-8-2-6-2-3-1-2,5-1,4h-1l-2-3-1-1v-7l-2-1-1,5h-1l-1-4-2-2-8-4h-2l-2,2v5l-1,5-1,6-2,4-3,2,1,3s2.292,2.188,2,3,0,6,0,6v7l-2,6-3,2-1,15v10l2,11,1,6v30l4,9,2,5v6l1,5,1,4,2,1,1,6v5h1l2,6,2,7,1,6,1,7,1,3,1,10,1,12,1,11,2,12,3,11,5,12,4,7,7,9,5,8,5,12,4,13,3,13,2,15,2,13,1,9,3,14,2,9,2,7v11l1,8,1,7,2,6,1,5,1,3v11l-4,4-9,2h-8l-4-3-1-5v-7l1-6,1-3V571l-2-11-2-15v-9l-4-11-9-18-5-10-6-10-4-8-4-9-3-7-1-5-5-6-6-9-7-10-2-8-4-10-4-12-6-11-9-16-7-13-4-8-5-8-3-9-1-7-3-4-6-3-4-2-4,1-2,7-3,9-4,11-5,10-5,11-4,10-6,15-3,15-4,12-4,7-4,9-5,10-4,8-3,6-2,11-4,14-3,12-4,10-3,11-2,10-2,16-1,19v16l2,12,1,9,1,7,2,6,3,5,3,4,2,3,1,3,1,4,1,8-5,2h-7l-9-2-5-1-6-3-1-4-2-2-1-3v-1Zm36-413,3,4,3,4,6,6,3,2,4,3,3,2,4,4h3l2-2,2-2,5,1,5,2,1,3,1,2,4-2,6-3,6-5,3-2,2-4h7v-5l1-2-1-5-2-4-4-6-3-4-4-4-1-1v15l-4-4-2-5-2-4-1-5-1,5,2,7v7l1,4-1,1-4-4-3-4-3-4-2-5v-4l-1-5-2-6v-4l-5,3-2,2v9l-3-1-1-3-1-1-7,6v4l1,5-2-1-1-2-3-1-2,3-1,2,1,4-1,1-2-1-1-2-4,2-2,2v2Zm-23-19a32.993,32.993,0,0,1-4-19c0.984-11.092,1-1,1-1l2-2,1-5,2-6,4-6,3-3v5l1,2,3-5,3-6,4-5s4.59-8.747,22-12,6-1,6-1l-5,4-5,6-4,3-4,6-5,5-6,11-2,5v6l1,3s-3.847.552-4,1-5,6-5,6l-4,4Zm43-94,7-5,7-2s6.726-2.262,7-2a5.082,5.082,0,0,0,2,0l-2,6-5,4S209.189,104.459,204,103Zm-19,7,3,4,6,1h2ZM313,94l3,6,4,7,4,3,3,2-1-3,2-3,2-1-2-4-4-3-3-4-2-2v5l-3-1Zm-8-27,2,3,2,3v3h5l3,2,2,1,3,1,1-2-2-3-2-2-1-1-2-3h-2l-2,1h-2l-2-2ZM180,392l36,3,72-6,43-11-1,2-38,14s-14.744.608-21,6-11.8,8.416-29,2-23.1-4.081-28-4-35-5-35-5Z"/>
</svg>
