<svg xmlns="http://www.w3.org/2000/svg" width="60" height="60" viewBox="0 0 60 60">
  <defs>
    <style>
      .cls-1 {
        fill: #fff;
        fill-rule: evenodd;
      }
    </style>
  </defs>
  <path id="Фигура_1" data-name="Фигура 1" class="cls-1" d="M8.539,47.64V12.135s0.568-3.451,3.6-3.6,35.506,0,35.506,0,3.806,0.041,3.82,3.82,0,35.506,0,35.506a4.175,4.175,0,0,1-4.045,3.6c-3.62.145-35.056,0-35.056,0S8.669,51.09,8.539,47.64Zm4.045,2.023H46.966s2.772,0.433,2.7-3.6,0-32.584,0-32.584,0.278-3.091-2.7-3.146-33.933,0-33.933,0a2.656,2.656,0,0,0-2.7,2.7c-0.185,2.78,0,33.258,0,33.258A2.977,2.977,0,0,0,12.584,49.663Z"/>
  <path id="Фигура_2" data-name="Фигура 2" class="cls-1" d="M17.753,13.258s-0.127-2.075,1.8-.9S46.966,29.214,46.966,29.214s1.537,0.733.225,1.573S19.326,47.64,19.326,47.64a0.941,0.941,0,0,1-1.573-.9C17.7,44.837,17.753,13.258,17.753,13.258Zm10.787,7.416,5.843,17.753H31.461l-1.124-3.6H23.371l-1.124,3.6H19.1l6.292-17.753h3.146Z"/>
  <path id="Фигура_3" data-name="Фигура 3" class="cls-1" d="M24.27,31.91l5.168,0.225-2.7-7.64Z"/>
</svg>
